<svg viewBox="0 0 1543.93 1073.57" xmlns="http://www.w3.org/2000/svg"><g fill="#fff"><path d="m18.52 64.44a42.55 42.55 0 0 1 38.78-46l198.7-16.93c163.53-13.94 284 69.42 296.89 221.07s-91.67 254.18-255.2 268.11l-198.69 16.93a42.54 42.54 0 0 1 -46-38.77s-4.82-156.51-9.27-208.67c-4.19-48.94-25.21-195.74-25.21-195.74zm261.23 298.26c69.18-5.89 113.19-51.17 106.82-125.95s-57.41-111.96-126.57-106.06l-48.46 4.13a20.79 20.79 0 0 0 -19 22.49l16.23 190.56a20.8 20.8 0 0 0 22.5 19z"/><path d="m701 17.73 80.09 7.52a42.54 42.54 0 0 1 38.37 46.34s-7.35 146.62-11.83 194.3c-5 53.35-26.14 209.79-26.14 209.79a42.54 42.54 0 0 1 -46.33 38.37l-80.09-7.52a42.55 42.55 0 0 1 -38.38-46.34s10.84-159.41 15.77-211.9c4.54-48.53 22.23-192.19 22.23-192.19a42.53 42.53 0 0 1 46.31-38.37z"/><path d="m1223.27 400.62-185.79 17-17.06 60.12a42.54 42.54 0 0 1 -37 30.76l-73.79 6.75a42.54 42.54 0 0 1 -44.25-55.78l77.31-207.92 62.31-212.44a42.53 42.53 0 0 1 36.49-28.94l106.64-9.76a42.55 42.55 0 0 1 41.14 21.84l92.49 191.15 121.24 196.87a42.54 42.54 0 0 1 -33.39 62.88l-76.59 7a42.52 42.52 0 0 1 -42-23.51zm-63.37-128.92-39-78.8a11 11 0 0 0 -20.38 1.87l-24.08 84.57a11 11 0 0 0 11.56 13.93l63.12-5.78a11 11 0 0 0 8.78-15.79z"/><path d="m205 925-14.12-1.66a15.32 15.32 0 0 0 -17 13.42l-9.24 78.51a29.07 29.07 0 0 1 -32.27 25.47l-106.69-12.58a29.08 29.08 0 0 1 -25.48-32.27s29.99-172.32 36.8-230.43c5.84-49.35 13.8-199.46 13.8-199.46a29.07 29.07 0 0 1 32.27-25.47l205.87 24.27c135.83 16 213.84 97.21 200.55 210.05-8.28 70.35-47.94 119.36-110 142.42l59.29 113.78c10.79 20.7-6 45-29.18 42.31l-105.6-12.44a29.08 29.08 0 0 1 -22.42-15.51l-54.31-105a28.92 28.92 0 0 0 -22.27-15.41zm58.62-234.62-47.71-5.62a12.28 12.28 0 0 0 -13.63 10.76l-10.58 89.85a12.29 12.29 0 0 0 10.71 13.63l47.71 5.61c45.28 5.33 69.41-13.72 73.59-49.24s-14.86-59.69-60.14-65.02z"/><path d="m921.13 974-3.7 66.59a29.07 29.07 0 0 1 -30.64 27.41l-349.51-19.42a29.07 29.07 0 0 1 -27.42-30.58s15.62-159.38 18.57-212.5c3.05-54.91 5.44-219.65 5.44-219.65a29.07 29.07 0 0 1 30.64-27.41l340.41 18.91a29.08 29.08 0 0 1 27.42 30.65l-3.7 66.6a29.07 29.07 0 0 1 -30.64 27.4l-192.43-10.72a14.56 14.56 0 0 0 -15.35 13.72l-1.58 28.33a14.59 14.59 0 0 0 13.74 15.36l163.71 9.09a29.08 29.08 0 0 1 27.42 30.64l-3.39 61a29.07 29.07 0 0 1 -30.64 27.42l-163.71-9.1a14.58 14.58 0 0 0 -15.36 13.74l-2 35.33a14.57 14.57 0 0 0 13.74 15.36l201.52 11.2a29.08 29.08 0 0 1 27.46 30.63z"/><path d="m1419.14 919.58 8.48 66.16a29.06 29.06 0 0 1 -25.14 32.53l-347.2 44.52a29.08 29.08 0 0 1 -32.54-25.14s-16.81-180-24.51-240c-6.06-47.32-30.53-189.27-30.53-189.27a29.09 29.09 0 0 1 25.14-32.54l338.16-43.38a29.07 29.07 0 0 1 32.53 25.14l8.48 66.15a29.07 29.07 0 0 1 -25.14 32.54l-191.14 24.51a14.57 14.57 0 0 0 -12.6 16.3l3.61 28.14a14.56 14.56 0 0 0 16.3 12.6l162.63-20.84a29.07 29.07 0 0 1 32.54 25.14l7.77 60.59a29.09 29.09 0 0 1 -25.14 32.54l-162.63 20.85a14.55 14.55 0 0 0 -12.6 16.3l4.5 35.1a14.57 14.57 0 0 0 16.3 12.6l200.2-25.67a29.07 29.07 0 0 1 32.53 25.13z"/><circle cx="1502.38" cy="968.07" r="41.55"/></g></svg>