<svg xmlns="http://www.w3.org/2000/svg" viewBox="0 0 1543.93 1073.57"><defs><style>.cls-1{fill:#fff;}</style></defs><g id="Layer_2" data-name="Layer 2"><g id="Layer_1-2" data-name="Layer 1"><path class="cls-1" d="M18.52,64.44a42.55,42.55,0,0,1,38.78-46L256,1.51C419.53-12.43,540,70.93,552.89,222.58s-91.67,254.18-255.2,268.11L99,507.62a42.54,42.54,0,0,1-46-38.77s-4.82-156.51-9.27-208.67C39.54,211.24,18.52,64.44,18.52,64.44ZM279.75,362.7c69.18-5.89,113.19-51.17,106.82-125.95S329.16,124.79,260,130.69l-48.46,4.13a20.79,20.79,0,0,0-19,22.49l16.23,190.56a20.8,20.8,0,0,0,22.5,19Z"/><path class="cls-1" d="M701,17.73l80.09,7.52a42.54,42.54,0,0,1,38.37,46.34s-7.35,146.62-11.83,194.3c-5,53.35-26.14,209.79-26.14,209.79a42.54,42.54,0,0,1-46.33,38.37l-80.09-7.52a42.55,42.55,0,0,1-38.38-46.34s10.84-159.41,15.77-211.9C637,199.76,654.69,56.1,654.69,56.1A42.53,42.53,0,0,1,701,17.73Z"/><path class="cls-1" d="M1223.27,400.62l-185.79,17-17.06,60.12a42.54,42.54,0,0,1-37,30.76l-73.79,6.75a42.54,42.54,0,0,1-44.25-55.78l77.31-207.92L1005,39.11a42.53,42.53,0,0,1,36.49-28.94L1148.13.41a42.55,42.55,0,0,1,41.14,21.84l92.49,191.15L1403,410.27a42.54,42.54,0,0,1-33.39,62.88l-76.59,7a42.52,42.52,0,0,1-42-23.51ZM1159.9,271.7l-39-78.8a11,11,0,0,0-20.38,1.87l-24.08,84.57A11,11,0,0,0,1088,293.27l63.12-5.78A11,11,0,0,0,1159.9,271.7Z"/><path class="cls-1" d="M205,925l-14.12-1.66a15.32,15.32,0,0,0-17,13.42l-9.24,78.51a29.07,29.07,0,0,1-32.27,25.47L25.68,1028.16A29.08,29.08,0,0,1,.2,995.89S30.19,823.57,37,765.46C42.84,716.11,50.8,566,50.8,566a29.07,29.07,0,0,1,32.27-25.47L288.94,564.8c135.83,16,213.84,97.21,200.55,210.05-8.28,70.35-47.94,119.36-110,142.42l59.29,113.78c10.79,20.7-6,45-29.18,42.31L304,1060.92a29.08,29.08,0,0,1-22.42-15.51l-54.31-105A28.92,28.92,0,0,0,205,925Zm58.62-234.62-47.71-5.62a12.28,12.28,0,0,0-13.63,10.76l-10.58,89.85A12.29,12.29,0,0,0,202.41,799l47.71,5.61c45.28,5.33,69.41-13.72,73.59-49.24S308.85,695.68,263.57,690.35Z"/><path class="cls-1" d="M921.13,974l-3.7,66.59A29.07,29.07,0,0,1,886.79,1068l-349.51-19.42A29.07,29.07,0,0,1,509.86,1018s15.62-159.38,18.57-212.5c3.05-54.91,5.44-219.65,5.44-219.65a29.07,29.07,0,0,1,30.64-27.41l340.41,18.91A29.08,29.08,0,0,1,932.34,608l-3.7,66.6A29.07,29.07,0,0,1,898,702L705.57,691.28A14.56,14.56,0,0,0,690.22,705l-1.58,28.33a14.59,14.59,0,0,0,13.74,15.36l163.71,9.09a29.08,29.08,0,0,1,27.42,30.64l-3.39,61a29.07,29.07,0,0,1-30.64,27.42l-163.71-9.1a14.58,14.58,0,0,0-15.36,13.74l-2,35.33a14.57,14.57,0,0,0,13.74,15.36l201.52,11.2A29.08,29.08,0,0,1,921.13,974Z"/><path class="cls-1" d="M1419.14,919.58l8.48,66.16a29.06,29.06,0,0,1-25.14,32.53l-347.2,44.52a29.08,29.08,0,0,1-32.54-25.14s-16.81-180-24.51-240c-6.06-47.32-30.53-189.27-30.53-189.27a29.09,29.09,0,0,1,25.14-32.54L1331,532.46a29.07,29.07,0,0,1,32.53,25.14l8.48,66.15a29.07,29.07,0,0,1-25.14,32.54L1155.73,680.8a14.57,14.57,0,0,0-12.6,16.3l3.61,28.14a14.56,14.56,0,0,0,16.3,12.6L1325.67,717a29.07,29.07,0,0,1,32.54,25.14l7.77,60.59a29.09,29.09,0,0,1-25.14,32.54l-162.63,20.85a14.55,14.55,0,0,0-12.6,16.3l4.5,35.1a14.57,14.57,0,0,0,16.3,12.6l200.2-25.67A29.07,29.07,0,0,1,1419.14,919.58Z"/><circle class="cls-1" cx="1502.38" cy="968.07" r="41.55"/></g></g></svg>